<mxfile host="Electron" agent="Mozilla/5.0 (X11; Linux x86_64) AppleWebKit/537.36 (KHTML, like Gecko) draw.io/24.7.17 Chrome/128.0.6613.36 Electron/32.0.1 Safari/537.36" version="24.7.17">
  <diagram name="Page-1" id="sXHfVegiXDXdAI8whB0i">
    <mxGraphModel dx="2230" dy="1590" grid="0" gridSize="10" guides="1" tooltips="1" connect="1" arrows="1" fold="1" page="0" pageScale="1" pageWidth="850" pageHeight="1100" math="0" shadow="0">
      <root>
        <mxCell id="0" />
        <mxCell id="1" parent="0" />
        <mxCell id="f_bNizxVKhIr0DjtM--Q-70" style="edgeStyle=orthogonalEdgeStyle;rounded=0;orthogonalLoop=1;jettySize=auto;html=1;endArrow=none;endFill=0;strokeWidth=1;" parent="1" source="9zA8bDKbN5jOhT-Oazy1-1" target="f_bNizxVKhIr0DjtM--Q-68" edge="1">
          <mxGeometry relative="1" as="geometry" />
        </mxCell>
        <mxCell id="f_bNizxVKhIr0DjtM--Q-109" style="edgeStyle=orthogonalEdgeStyle;rounded=0;orthogonalLoop=1;jettySize=auto;html=1;" parent="1" source="f_bNizxVKhIr0DjtM--Q-71" target="f_bNizxVKhIr0DjtM--Q-15" edge="1">
          <mxGeometry relative="1" as="geometry" />
        </mxCell>
        <mxCell id="f_bNizxVKhIr0DjtM--Q-115" style="edgeStyle=orthogonalEdgeStyle;rounded=1;orthogonalLoop=1;jettySize=auto;html=1;entryX=0.5;entryY=0;entryDx=0;entryDy=0;curved=0;dashed=1;endArrow=open;endFill=0;" parent="1" source="9zA8bDKbN5jOhT-Oazy1-1" target="f_bNizxVKhIr0DjtM--Q-114" edge="1">
          <mxGeometry relative="1" as="geometry" />
        </mxCell>
        <mxCell id="9zA8bDKbN5jOhT-Oazy1-1" value="VkInstance" style="rounded=1;whiteSpace=wrap;html=1;fillColor=#a20025;strokeColor=#6F0000;fontStyle=1;fontColor=#ffffff;" parent="1" vertex="1">
          <mxGeometry x="-42.5" y="-520" width="80" height="30" as="geometry" />
        </mxCell>
        <mxCell id="9zA8bDKbN5jOhT-Oazy1-4" value="VkPipeline" style="rounded=1;whiteSpace=wrap;html=1;fillColor=#a20025;strokeColor=#6F0000;fontStyle=1;fontColor=#ffffff;" parent="1" vertex="1">
          <mxGeometry x="650" y="300" width="80" height="30" as="geometry" />
        </mxCell>
        <mxCell id="9zA8bDKbN5jOhT-Oazy1-5" value="VkCommandBuffer" style="rounded=1;whiteSpace=wrap;html=1;fillColor=#a20025;strokeColor=#6F0000;fontStyle=1;fontColor=#ffffff;" parent="1" vertex="1">
          <mxGeometry x="650" y="390" width="120" height="30" as="geometry" />
        </mxCell>
        <mxCell id="9zA8bDKbN5jOhT-Oazy1-6" value="VkCommandPool" style="rounded=1;whiteSpace=wrap;html=1;fillColor=#a20025;strokeColor=#6F0000;fontStyle=1;fontColor=#ffffff;" parent="1" vertex="1">
          <mxGeometry x="650" y="430" width="120" height="30" as="geometry" />
        </mxCell>
        <mxCell id="9zA8bDKbN5jOhT-Oazy1-7" value="VkQueue" style="rounded=1;whiteSpace=wrap;html=1;fillColor=#a20025;strokeColor=#6F0000;fontStyle=1;fontColor=#ffffff;" parent="1" vertex="1">
          <mxGeometry x="655" y="470" width="70" height="30" as="geometry" />
        </mxCell>
        <mxCell id="9zA8bDKbN5jOhT-Oazy1-8" value="VkRenderPass" style="rounded=1;whiteSpace=wrap;html=1;fillColor=#a20025;strokeColor=#6F0000;fontStyle=1;fontColor=#ffffff;" parent="1" vertex="1">
          <mxGeometry x="810" y="310" width="100" height="30" as="geometry" />
        </mxCell>
        <mxCell id="9zA8bDKbN5jOhT-Oazy1-9" value="VkImage" style="rounded=1;whiteSpace=wrap;html=1;fillColor=#a20025;strokeColor=#6F0000;fontStyle=1;fontColor=#ffffff;" parent="1" vertex="1">
          <mxGeometry x="810" y="350" width="70" height="30" as="geometry" />
        </mxCell>
        <mxCell id="9zA8bDKbN5jOhT-Oazy1-10" value="VkBuffer" style="rounded=1;whiteSpace=wrap;html=1;fillColor=#a20025;strokeColor=#6F0000;fontStyle=1;fontColor=#ffffff;" parent="1" vertex="1">
          <mxGeometry x="815" y="430" width="70" height="30" as="geometry" />
        </mxCell>
        <mxCell id="9zA8bDKbN5jOhT-Oazy1-11" value="VkFrameBuffer" style="rounded=1;whiteSpace=wrap;html=1;fillColor=#a20025;strokeColor=#6F0000;fontStyle=1;fontColor=#ffffff;" parent="1" vertex="1">
          <mxGeometry x="815" y="470" width="100" height="30" as="geometry" />
        </mxCell>
        <mxCell id="9zA8bDKbN5jOhT-Oazy1-12" value="VkDescriptorSet" style="rounded=1;whiteSpace=wrap;html=1;fillColor=#a20025;strokeColor=#6F0000;fontStyle=1;fontColor=#ffffff;" parent="1" vertex="1">
          <mxGeometry x="815" y="510" width="110" height="30" as="geometry" />
        </mxCell>
        <mxCell id="9zA8bDKbN5jOhT-Oazy1-14" value="VkFence" style="rounded=1;whiteSpace=wrap;html=1;fillColor=#a20025;strokeColor=#6F0000;fontStyle=1;fontColor=#ffffff;" parent="1" vertex="1">
          <mxGeometry x="945" y="310" width="70" height="30" as="geometry" />
        </mxCell>
        <mxCell id="9zA8bDKbN5jOhT-Oazy1-15" value="VkSemaphore" style="rounded=1;whiteSpace=wrap;html=1;fillColor=#a20025;strokeColor=#6F0000;fontStyle=1;fontColor=#ffffff;" parent="1" vertex="1">
          <mxGeometry x="945" y="350" width="100" height="30" as="geometry" />
        </mxCell>
        <mxCell id="9zA8bDKbN5jOhT-Oazy1-23" value="VkPipelineLayout" style="rounded=1;whiteSpace=wrap;html=1;fillColor=#a20025;strokeColor=#6F0000;fontStyle=1;fontColor=#ffffff;" parent="1" vertex="1">
          <mxGeometry x="650" y="350" width="120" height="30" as="geometry" />
        </mxCell>
        <mxCell id="9zA8bDKbN5jOhT-Oazy1-24" value="VkDescriptorSetLayout" style="rounded=1;whiteSpace=wrap;html=1;fillColor=#a20025;strokeColor=#6F0000;fontStyle=1;fontColor=#ffffff;" parent="1" vertex="1">
          <mxGeometry x="815" y="550" width="150" height="30" as="geometry" />
        </mxCell>
        <mxCell id="9zA8bDKbN5jOhT-Oazy1-25" value="VkDeviceMemory" style="rounded=1;whiteSpace=wrap;html=1;fillColor=#a20025;strokeColor=#6F0000;fontStyle=1;fontColor=#ffffff;" parent="1" vertex="1">
          <mxGeometry x="1085" y="310" width="120" height="30" as="geometry" />
        </mxCell>
        <mxCell id="9zA8bDKbN5jOhT-Oazy1-26" value="VkDescriptorPool" style="rounded=1;whiteSpace=wrap;html=1;fillColor=#a20025;strokeColor=#6F0000;fontStyle=1;fontColor=#ffffff;" parent="1" vertex="1">
          <mxGeometry x="810" y="590" width="120" height="30" as="geometry" />
        </mxCell>
        <mxCell id="9zA8bDKbN5jOhT-Oazy1-27" value="VmaAllocation" style="rounded=1;whiteSpace=wrap;html=1;fillColor=#a20025;strokeColor=#6F0000;fontStyle=1;fontColor=#ffffff;" parent="1" vertex="1">
          <mxGeometry x="1095" y="350" width="100" height="30" as="geometry" />
        </mxCell>
        <mxCell id="9zA8bDKbN5jOhT-Oazy1-28" value="VmaAllocator" style="rounded=1;whiteSpace=wrap;html=1;fillColor=#a20025;strokeColor=#6F0000;fontStyle=1;fontColor=#ffffff;" parent="1" vertex="1">
          <mxGeometry x="1100" y="390" width="90" height="30" as="geometry" />
        </mxCell>
        <mxCell id="9zA8bDKbN5jOhT-Oazy1-32" value="VkImageView" style="rounded=1;whiteSpace=wrap;html=1;fillColor=#a20025;strokeColor=#6F0000;fontStyle=1;fontColor=#ffffff;" parent="1" vertex="1">
          <mxGeometry x="810" y="390" width="100" height="30" as="geometry" />
        </mxCell>
        <mxCell id="xl2IStUqhT06WcSDK2QN-125" style="edgeStyle=orthogonalEdgeStyle;rounded=0;orthogonalLoop=1;jettySize=auto;html=1;entryX=0.5;entryY=0;entryDx=0;entryDy=0;dashed=1;endArrow=open;endFill=0;" edge="1" parent="1" source="f_bNizxVKhIr0DjtM--Q-15" target="f_bNizxVKhIr0DjtM--Q-43">
          <mxGeometry relative="1" as="geometry">
            <Array as="points">
              <mxPoint x="120" y="80" />
              <mxPoint x="120" y="80" />
            </Array>
          </mxGeometry>
        </mxCell>
        <mxCell id="f_bNizxVKhIr0DjtM--Q-15" value="VkPhysicalDevice" style="swimlane;whiteSpace=wrap;html=1;strokeColor=#A20025;fillColor=#A20025;fontColor=#FFFFFF;startSize=24;rounded=1;arcSize=15;swimlaneHead=1;connectable=1;container=0;dropTarget=1;" parent="1" vertex="1">
          <mxGeometry x="20" y="-410" width="720" height="480" as="geometry" />
        </mxCell>
        <mxCell id="xl2IStUqhT06WcSDK2QN-114" style="edgeStyle=orthogonalEdgeStyle;rounded=0;orthogonalLoop=1;jettySize=auto;html=1;entryX=0;entryY=0.5;entryDx=0;entryDy=0;" edge="1" parent="f_bNizxVKhIr0DjtM--Q-15" source="f_bNizxVKhIr0DjtM--Q-46" target="f_bNizxVKhIr0DjtM--Q-121">
          <mxGeometry relative="1" as="geometry" />
        </mxCell>
        <mxCell id="f_bNizxVKhIr0DjtM--Q-46" value="vkGetPhysicalDeviceQueueFamilyProperties(...)" style="rounded=1;whiteSpace=wrap;html=1;fillColor=#f0a30a;strokeColor=#BD7000;fontStyle=1;fontColor=#000000;fontSize=10;" parent="f_bNizxVKhIr0DjtM--Q-15" vertex="1">
          <mxGeometry x="15" y="269.12" width="245" height="30" as="geometry" />
        </mxCell>
        <mxCell id="xl2IStUqhT06WcSDK2QN-108" style="edgeStyle=orthogonalEdgeStyle;rounded=0;orthogonalLoop=1;jettySize=auto;html=1;entryX=0;entryY=0.5;entryDx=0;entryDy=0;" edge="1" parent="f_bNizxVKhIr0DjtM--Q-15" source="f_bNizxVKhIr0DjtM--Q-47" target="xl2IStUqhT06WcSDK2QN-106">
          <mxGeometry relative="1" as="geometry" />
        </mxCell>
        <mxCell id="f_bNizxVKhIr0DjtM--Q-47" value="vkGetPhysicalDeviceProperties(...)" style="rounded=1;whiteSpace=wrap;html=1;fillColor=#f0a30a;strokeColor=#BD7000;fontStyle=1;fontColor=#000000;fontSize=10;" parent="f_bNizxVKhIr0DjtM--Q-15" vertex="1">
          <mxGeometry x="15" y="170" width="180" height="30" as="geometry" />
        </mxCell>
        <mxCell id="xl2IStUqhT06WcSDK2QN-104" style="edgeStyle=orthogonalEdgeStyle;rounded=0;orthogonalLoop=1;jettySize=auto;html=1;entryX=0;entryY=0.5;entryDx=0;entryDy=0;" edge="1" parent="f_bNizxVKhIr0DjtM--Q-15" source="f_bNizxVKhIr0DjtM--Q-48" target="f_bNizxVKhIr0DjtM--Q-117">
          <mxGeometry relative="1" as="geometry" />
        </mxCell>
        <mxCell id="f_bNizxVKhIr0DjtM--Q-48" value="vkGetPhysicalDeviceFeatures(...)" style="rounded=1;whiteSpace=wrap;html=1;fillColor=#f0a30a;strokeColor=#BD7000;fontStyle=1;fontColor=#000000;fontSize=10;" parent="f_bNizxVKhIr0DjtM--Q-15" vertex="1">
          <mxGeometry x="15" y="67.5" width="170" height="30" as="geometry" />
        </mxCell>
        <mxCell id="f_bNizxVKhIr0DjtM--Q-117" value="VkPhysicalDeviceFeatures" style="swimlane;whiteSpace=wrap;html=1;swimlaneHead=1;swimlaneBody=1;horizontal=1;expand=1;movable=1;container=0;rounded=1;fillColor=#647687;fontColor=#ffffff;strokeColor=#314354;align=left;spacingLeft=5;" parent="f_bNizxVKhIr0DjtM--Q-15" vertex="1">
          <mxGeometry x="290" y="37.5" width="190" height="90" as="geometry" />
        </mxCell>
        <mxCell id="xl2IStUqhT06WcSDK2QN-103" value="-&amp;nbsp;maxFramebufferWidth&lt;div&gt;-&amp;nbsp;maxFramebufferHeight&lt;br&gt;-&amp;nbsp;maxMemoryAllocationCount&lt;br&gt;- ...&lt;/div&gt;" style="text;html=1;align=left;verticalAlign=middle;whiteSpace=wrap;rounded=0;" vertex="1" parent="f_bNizxVKhIr0DjtM--Q-117">
          <mxGeometry x="10" y="25" width="190" height="60" as="geometry" />
        </mxCell>
        <mxCell id="xl2IStUqhT06WcSDK2QN-106" value="VkPhysicalDeviceFeatures" style="swimlane;whiteSpace=wrap;html=1;swimlaneHead=1;swimlaneBody=1;horizontal=1;expand=1;movable=1;container=0;rounded=1;fillColor=#647687;fontColor=#ffffff;strokeColor=#314354;align=left;spacingLeft=5;" vertex="1" parent="f_bNizxVKhIr0DjtM--Q-15">
          <mxGeometry x="290" y="140" width="170" height="90" as="geometry" />
        </mxCell>
        <mxCell id="xl2IStUqhT06WcSDK2QN-107" value="- apiVersion&lt;br&gt;- deviceType&lt;br&gt;- limits&lt;br&gt;- ..." style="text;html=1;align=left;verticalAlign=middle;whiteSpace=wrap;rounded=0;" vertex="1" parent="xl2IStUqhT06WcSDK2QN-106">
          <mxGeometry x="10" y="25" width="190" height="60" as="geometry" />
        </mxCell>
        <mxCell id="xl2IStUqhT06WcSDK2QN-117" style="edgeStyle=orthogonalEdgeStyle;rounded=0;orthogonalLoop=1;jettySize=auto;html=1;entryX=0;entryY=0.5;entryDx=0;entryDy=0;" edge="1" parent="f_bNizxVKhIr0DjtM--Q-15" source="f_bNizxVKhIr0DjtM--Q-121" target="xl2IStUqhT06WcSDK2QN-115">
          <mxGeometry relative="1" as="geometry" />
        </mxCell>
        <mxCell id="xl2IStUqhT06WcSDK2QN-128" style="edgeStyle=orthogonalEdgeStyle;rounded=0;orthogonalLoop=1;jettySize=auto;html=1;entryX=0.5;entryY=0;entryDx=0;entryDy=0;endArrow=open;endFill=0;dashed=1;" edge="1" parent="f_bNizxVKhIr0DjtM--Q-15" source="f_bNizxVKhIr0DjtM--Q-121" target="xl2IStUqhT06WcSDK2QN-119">
          <mxGeometry relative="1" as="geometry">
            <Array as="points">
              <mxPoint x="375" y="360" />
              <mxPoint x="135" y="360" />
            </Array>
          </mxGeometry>
        </mxCell>
        <mxCell id="f_bNizxVKhIr0DjtM--Q-121" value="VkQueueFamilyProperties" style="swimlane;whiteSpace=wrap;html=1;swimlaneHead=1;swimlaneBody=1;horizontal=1;expand=1;movable=1;container=0;rounded=1;startSize=23;fillColor=#647687;fontColor=#ffffff;strokeColor=#314354;align=left;spacingLeft=5;" parent="f_bNizxVKhIr0DjtM--Q-15" vertex="1">
          <mxGeometry x="290" y="240" width="170" height="88.25" as="geometry" />
        </mxCell>
        <mxCell id="xl2IStUqhT06WcSDK2QN-112" value="- queueFlags&lt;br&gt;- queueCount&lt;br&gt;- ..." style="text;html=1;align=left;verticalAlign=top;whiteSpace=wrap;rounded=0;" vertex="1" parent="f_bNizxVKhIr0DjtM--Q-121">
          <mxGeometry x="10" y="28.25" width="150" height="51.75" as="geometry" />
        </mxCell>
        <mxCell id="xl2IStUqhT06WcSDK2QN-115" value="- VK_QUEUE_GRAPHICS_BIT&lt;div&gt;-&amp;nbsp;VK_QUEUE_COMPUTE_BIT&lt;/div&gt;&lt;div&gt;-&amp;nbsp;VK_QUEUE_TRANSFER_BIT&lt;/div&gt;&lt;div&gt;-&amp;nbsp;VK_QUEUE_SPARSE_BINDING_BIT&lt;/div&gt;" style="text;html=1;align=left;verticalAlign=middle;whiteSpace=wrap;rounded=0;" vertex="1" parent="f_bNizxVKhIr0DjtM--Q-15">
          <mxGeometry x="490" y="246.18" width="230" height="75.88" as="geometry" />
        </mxCell>
        <mxCell id="xl2IStUqhT06WcSDK2QN-123" style="edgeStyle=orthogonalEdgeStyle;rounded=0;orthogonalLoop=1;jettySize=auto;html=1;" edge="1" parent="f_bNizxVKhIr0DjtM--Q-15" source="xl2IStUqhT06WcSDK2QN-119" target="xl2IStUqhT06WcSDK2QN-122">
          <mxGeometry relative="1" as="geometry" />
        </mxCell>
        <mxCell id="xl2IStUqhT06WcSDK2QN-119" value="vkGetPhysicalDeviceSurfaceSupportKHR(...)" style="rounded=1;whiteSpace=wrap;html=1;fillColor=#f0a30a;strokeColor=#BD7000;fontStyle=1;fontColor=#000000;fontSize=10;" vertex="1" parent="f_bNizxVKhIr0DjtM--Q-15">
          <mxGeometry x="20" y="390" width="230" height="30" as="geometry" />
        </mxCell>
        <mxCell id="xl2IStUqhT06WcSDK2QN-122" value="true/false" style="text;html=1;align=left;verticalAlign=middle;whiteSpace=wrap;rounded=0;" vertex="1" parent="f_bNizxVKhIr0DjtM--Q-15">
          <mxGeometry x="280" y="395" width="60" height="20" as="geometry" />
        </mxCell>
        <mxCell id="xl2IStUqhT06WcSDK2QN-130" style="edgeStyle=orthogonalEdgeStyle;rounded=0;orthogonalLoop=1;jettySize=auto;html=1;" edge="1" parent="f_bNizxVKhIr0DjtM--Q-15" source="xl2IStUqhT06WcSDK2QN-126" target="xl2IStUqhT06WcSDK2QN-129">
          <mxGeometry relative="1" as="geometry" />
        </mxCell>
        <mxCell id="xl2IStUqhT06WcSDK2QN-126" value="vkEnumerateDeviceExtensionProperties(...)" style="rounded=1;whiteSpace=wrap;html=1;fillColor=#f0a30a;strokeColor=#BD7000;fontStyle=1;fontColor=#000000;fontSize=10;" vertex="1" parent="f_bNizxVKhIr0DjtM--Q-15">
          <mxGeometry x="20" y="430" width="230" height="30" as="geometry" />
        </mxCell>
        <mxCell id="xl2IStUqhT06WcSDK2QN-129" value="needs &quot;VK_KHR_surface&quot; extension" style="text;html=1;align=left;verticalAlign=middle;whiteSpace=wrap;rounded=0;" vertex="1" parent="f_bNizxVKhIr0DjtM--Q-15">
          <mxGeometry x="280" y="435" width="210" height="20" as="geometry" />
        </mxCell>
        <mxCell id="xl2IStUqhT06WcSDK2QN-87" style="edgeStyle=orthogonalEdgeStyle;rounded=0;orthogonalLoop=1;jettySize=auto;html=1;entryX=0.5;entryY=0;entryDx=0;entryDy=0;dashed=1;endArrow=open;endFill=0;" edge="1" parent="1" source="f_bNizxVKhIr0DjtM--Q-26" target="xl2IStUqhT06WcSDK2QN-43">
          <mxGeometry relative="1" as="geometry" />
        </mxCell>
        <mxCell id="xl2IStUqhT06WcSDK2QN-134" style="edgeStyle=orthogonalEdgeStyle;rounded=0;orthogonalLoop=1;jettySize=auto;html=1;entryX=0;entryY=0.5;entryDx=0;entryDy=0;dashed=1;endArrow=open;endFill=0;" edge="1" parent="1" source="f_bNizxVKhIr0DjtM--Q-26" target="xl2IStUqhT06WcSDK2QN-119">
          <mxGeometry relative="1" as="geometry">
            <Array as="points">
              <mxPoint x="-319" y="-5" />
            </Array>
          </mxGeometry>
        </mxCell>
        <mxCell id="f_bNizxVKhIr0DjtM--Q-26" value="VkSurfaceKHR" style="swimlane;whiteSpace=wrap;html=1;strokeColor=#A20025;fillColor=#A20025;fontColor=#FFFFFF;startSize=24;rounded=1;arcSize=15;swimlaneHead=1;connectable=1;container=0;dropTarget=1;" parent="1" vertex="1">
          <mxGeometry x="-620" y="-410" width="602.5" height="370" as="geometry" />
        </mxCell>
        <mxCell id="xl2IStUqhT06WcSDK2QN-12" value="vkGetPhysicalDeviceSurfaceCapabilitiesKHR(...)" style="rounded=1;whiteSpace=wrap;html=1;fillColor=#f0a30a;strokeColor=#BD7000;fontStyle=1;fontColor=#000000;fontSize=10;" vertex="1" parent="f_bNizxVKhIr0DjtM--Q-26">
          <mxGeometry x="12.5" y="71.75" width="250" height="30" as="geometry" />
        </mxCell>
        <mxCell id="xl2IStUqhT06WcSDK2QN-1" value="VkSurfaceCapabilitiesKHR" style="swimlane;whiteSpace=wrap;html=1;swimlaneHead=1;swimlaneBody=1;horizontal=1;expand=1;movable=1;container=0;rounded=1;fillColor=#647687;strokeColor=#314354;align=left;spacingLeft=5;fontColor=#ffffff;" vertex="1" parent="f_bNizxVKhIr0DjtM--Q-26">
          <mxGeometry x="301.25" y="39.25" width="180" height="95" as="geometry" />
        </mxCell>
        <mxCell id="xl2IStUqhT06WcSDK2QN-69" value="- minImageCount&lt;div&gt;- maxImageCount&lt;br&gt;- currenExtent&lt;br&gt;- ...&lt;/div&gt;" style="text;html=1;align=left;verticalAlign=middle;whiteSpace=wrap;rounded=0;" vertex="1" parent="xl2IStUqhT06WcSDK2QN-1">
          <mxGeometry x="11.25" y="29" width="125" height="60" as="geometry" />
        </mxCell>
        <mxCell id="xl2IStUqhT06WcSDK2QN-24" value="VkPresentModeKHR" style="swimlane;whiteSpace=wrap;html=1;swimlaneHead=1;swimlaneBody=1;horizontal=1;expand=1;movable=1;container=0;rounded=1;fillColor=#647687;strokeColor=#314354;fontColor=#ffffff;align=left;spacingLeft=5;" vertex="1" parent="f_bNizxVKhIr0DjtM--Q-26">
          <mxGeometry x="301.25" y="145.25" width="280" height="113" as="geometry" />
        </mxCell>
        <mxCell id="xl2IStUqhT06WcSDK2QN-76" value="- VK_PRESENT_MODE_IMMEDIATE_KHR&lt;div&gt;-&amp;nbsp;VK_PRESENT_MODE_MAILBOX_KHR&lt;/div&gt;&lt;div&gt;-&amp;nbsp;VK_PRESENT_MODE_FIFO_KHR&lt;br&gt;-&amp;nbsp;VK_PRESENT_MODE_FIFO_RELAXED_KHR&amp;nbsp;&lt;br&gt;- ...&lt;/div&gt;" style="text;html=1;align=left;verticalAlign=middle;whiteSpace=wrap;rounded=0;" vertex="1" parent="xl2IStUqhT06WcSDK2QN-24">
          <mxGeometry x="6" y="31.25" width="270" height="77.5" as="geometry" />
        </mxCell>
        <mxCell id="xl2IStUqhT06WcSDK2QN-15" value="vkGetPhysicalDeviceSurfacePresentModesKHR(...)" style="rounded=1;whiteSpace=wrap;html=1;fillColor=#f0a30a;strokeColor=#BD7000;fontStyle=1;fontColor=#000000;fontSize=10;" vertex="1" parent="f_bNizxVKhIr0DjtM--Q-26">
          <mxGeometry x="12.5" y="186.75" width="260" height="30" as="geometry" />
        </mxCell>
        <mxCell id="xl2IStUqhT06WcSDK2QN-14" value="vkGetPhysicalDeviceSurfaceFormatsKHR(...)" style="rounded=1;whiteSpace=wrap;html=1;fillColor=#f0a30a;strokeColor=#BD7000;fontStyle=1;fontColor=#000000;fontSize=10;" vertex="1" parent="f_bNizxVKhIr0DjtM--Q-26">
          <mxGeometry x="12.5" y="293.25" width="230" height="30" as="geometry" />
        </mxCell>
        <mxCell id="xl2IStUqhT06WcSDK2QN-22" value="VkSurfaceFormatKHR" style="swimlane;whiteSpace=wrap;html=1;swimlaneHead=1;swimlaneBody=1;horizontal=1;expand=1;movable=1;container=0;rounded=1;fillColor=#647687;strokeColor=#314354;fontColor=#ffffff;align=left;spacingLeft=5;" vertex="1" parent="f_bNizxVKhIr0DjtM--Q-26">
          <mxGeometry x="301.25" y="268.25" width="150" height="80" as="geometry" />
        </mxCell>
        <mxCell id="xl2IStUqhT06WcSDK2QN-80" value="- format&lt;div&gt;- colorSpace&lt;/div&gt;" style="text;html=1;align=left;verticalAlign=top;whiteSpace=wrap;rounded=0;" vertex="1" parent="xl2IStUqhT06WcSDK2QN-22">
          <mxGeometry x="6" y="31.25" width="84" height="47.5" as="geometry" />
        </mxCell>
        <mxCell id="xl2IStUqhT06WcSDK2QN-75" style="edgeStyle=orthogonalEdgeStyle;rounded=0;orthogonalLoop=1;jettySize=auto;html=1;entryX=0;entryY=0.5;entryDx=0;entryDy=0;" edge="1" parent="f_bNizxVKhIr0DjtM--Q-26" source="xl2IStUqhT06WcSDK2QN-12" target="xl2IStUqhT06WcSDK2QN-1">
          <mxGeometry relative="1" as="geometry" />
        </mxCell>
        <mxCell id="xl2IStUqhT06WcSDK2QN-77" style="edgeStyle=orthogonalEdgeStyle;rounded=0;orthogonalLoop=1;jettySize=auto;html=1;entryX=0;entryY=0.5;entryDx=0;entryDy=0;" edge="1" parent="f_bNizxVKhIr0DjtM--Q-26" source="xl2IStUqhT06WcSDK2QN-15" target="xl2IStUqhT06WcSDK2QN-24">
          <mxGeometry relative="1" as="geometry" />
        </mxCell>
        <mxCell id="xl2IStUqhT06WcSDK2QN-81" style="edgeStyle=orthogonalEdgeStyle;rounded=0;orthogonalLoop=1;jettySize=auto;html=1;entryX=0;entryY=0.5;entryDx=0;entryDy=0;" edge="1" parent="f_bNizxVKhIr0DjtM--Q-26" source="xl2IStUqhT06WcSDK2QN-14" target="xl2IStUqhT06WcSDK2QN-22">
          <mxGeometry relative="1" as="geometry" />
        </mxCell>
        <mxCell id="f_bNizxVKhIr0DjtM--Q-68" value="VkApplicationInfo" style="rounded=1;whiteSpace=wrap;html=1;fillColor=#647687;strokeColor=#314354;fontStyle=1;fontColor=#ffffff;" parent="1" vertex="1">
          <mxGeometry x="-60" y="-570" width="115" height="30" as="geometry" />
        </mxCell>
        <mxCell id="f_bNizxVKhIr0DjtM--Q-111" value="" style="edgeStyle=orthogonalEdgeStyle;rounded=1;orthogonalLoop=1;jettySize=auto;html=1;endArrow=open;endFill=0;textShadow=0;curved=0;dashed=1;startArrow=none;startFill=0;" parent="1" source="9zA8bDKbN5jOhT-Oazy1-1" target="f_bNizxVKhIr0DjtM--Q-71" edge="1">
          <mxGeometry relative="1" as="geometry">
            <mxPoint x="438" y="-470" as="sourcePoint" />
            <mxPoint x="438" y="-340" as="targetPoint" />
          </mxGeometry>
        </mxCell>
        <mxCell id="f_bNizxVKhIr0DjtM--Q-71" value="vkEnumeratePhysicalDevices(...)" style="rounded=1;whiteSpace=wrap;html=1;fillColor=#f0a30a;strokeColor=#BD7000;fontStyle=1;fontColor=#000000;fontSize=10;" parent="1" vertex="1">
          <mxGeometry x="292.5" y="-470" width="175" height="30" as="geometry" />
        </mxCell>
        <mxCell id="f_bNizxVKhIr0DjtM--Q-116" style="edgeStyle=orthogonalEdgeStyle;rounded=1;orthogonalLoop=1;jettySize=auto;html=1;entryX=0.5;entryY=0;entryDx=0;entryDy=0;curved=0;" parent="1" source="f_bNizxVKhIr0DjtM--Q-114" target="f_bNizxVKhIr0DjtM--Q-26" edge="1">
          <mxGeometry relative="1" as="geometry" />
        </mxCell>
        <mxCell id="f_bNizxVKhIr0DjtM--Q-114" value="SDL_Vulkan_CreateSurface(...)" style="rounded=1;whiteSpace=wrap;html=1;fillColor=#f0a30a;strokeColor=#BD7000;fontStyle=1;fontColor=#000000;fontSize=10;" parent="1" vertex="1">
          <mxGeometry x="-411.25" y="-470" width="185" height="30" as="geometry" />
        </mxCell>
        <mxCell id="xl2IStUqhT06WcSDK2QN-85" style="edgeStyle=orthogonalEdgeStyle;rounded=0;orthogonalLoop=1;jettySize=auto;html=1;" edge="1" parent="1" source="xl2IStUqhT06WcSDK2QN-43" target="xl2IStUqhT06WcSDK2QN-145">
          <mxGeometry relative="1" as="geometry">
            <mxPoint x="-318.99999999999955" y="92" as="targetPoint" />
          </mxGeometry>
        </mxCell>
        <mxCell id="xl2IStUqhT06WcSDK2QN-43" value="vkCreateSwapchainKHR(...)" style="rounded=1;whiteSpace=wrap;html=1;fillColor=#f0a30a;strokeColor=#BD7000;fontStyle=1;fontColor=#000000;fontSize=10;" vertex="1" parent="1">
          <mxGeometry x="-392.5" y="32" width="147.5" height="30" as="geometry" />
        </mxCell>
        <mxCell id="xl2IStUqhT06WcSDK2QN-132" style="edgeStyle=orthogonalEdgeStyle;rounded=0;orthogonalLoop=1;jettySize=auto;html=1;entryX=1;entryY=0.5;entryDx=0;entryDy=0;dashed=1;endArrow=open;endFill=0;exitX=0;exitY=0.5;exitDx=0;exitDy=0;" edge="1" parent="1" source="xl2IStUqhT06WcSDK2QN-142" target="xl2IStUqhT06WcSDK2QN-43">
          <mxGeometry relative="1" as="geometry">
            <mxPoint x="24.75" y="270" as="sourcePoint" />
          </mxGeometry>
        </mxCell>
        <mxCell id="xl2IStUqhT06WcSDK2QN-100" style="edgeStyle=orthogonalEdgeStyle;rounded=0;orthogonalLoop=1;jettySize=auto;html=1;entryX=0.5;entryY=0;entryDx=0;entryDy=0;" edge="1" parent="1" source="f_bNizxVKhIr0DjtM--Q-43" target="xl2IStUqhT06WcSDK2QN-142">
          <mxGeometry relative="1" as="geometry">
            <mxPoint x="119.51724137931069" y="170" as="targetPoint" />
          </mxGeometry>
        </mxCell>
        <mxCell id="f_bNizxVKhIr0DjtM--Q-43" value="&lt;span style=&quot;color: rgb(0, 0, 0); font-size: 10px;&quot;&gt;vkCreateDevice(...)&lt;/span&gt;" style="rounded=1;whiteSpace=wrap;html=1;fillColor=#f0a30a;strokeColor=#BD7000;fontStyle=1;fontColor=#000000;fontSize=10;" parent="1" vertex="1">
          <mxGeometry x="67.25" y="100" width="105" height="30" as="geometry" />
        </mxCell>
        <mxCell id="xl2IStUqhT06WcSDK2QN-142" value="VkDevice" style="rounded=1;whiteSpace=wrap;html=1;fillColor=#a20025;strokeColor=#6F0000;fontStyle=1;fontColor=#ffffff;" vertex="1" parent="1">
          <mxGeometry x="80" y="160" width="79.5" height="30" as="geometry" />
        </mxCell>
        <mxCell id="xl2IStUqhT06WcSDK2QN-144" value="Handle to a device object" style="text;html=1;align=left;verticalAlign=middle;whiteSpace=wrap;rounded=0;" vertex="1" parent="1">
          <mxGeometry x="172.25" y="160" width="88" height="30" as="geometry" />
        </mxCell>
        <mxCell id="xl2IStUqhT06WcSDK2QN-145" value="V&lt;span style=&quot;background-color: initial;&quot;&gt;kSwapchainKHR&lt;/span&gt;" style="rounded=1;whiteSpace=wrap;html=1;fillColor=#a20025;strokeColor=#6F0000;fontStyle=1;fontColor=#ffffff;" vertex="1" parent="1">
          <mxGeometry x="-378.75" y="92" width="120" height="30" as="geometry" />
        </mxCell>
      </root>
    </mxGraphModel>
  </diagram>
</mxfile>
